<?xml version="1.0" encoding="utf-8"?>
<!-- Generator: Adobe Illustrator 19.0.0, SVG Export Plug-In . SVG Version: 6.00 Build 0)  -->
<svg version="1.1" id="Layer_1" xmlns="http://www.w3.org/2000/svg" xmlns:xlink="http://www.w3.org/1999/xlink" x="0px" y="0px"
	 viewBox="0 0 48 48" style="enable-background:new 0 0 48 48;" xml:space="preserve">
<g>
	<g>
		<path id="XMLID_2_" d="M23,44l-5,4V27h13.5c0.9,0,8.6-0.6,8.7-11.1C40.2,6,32.5,5,31.4,5H8v43l-5-4V0l28.4,0
			c0.1,0,14,0.5,13.9,15.9c0,5.1-1.5,9.3-4.4,12.1c-4,4-9.3,4-9.5,4H23V44z"/>
	</g>
	<g>
		<polyline id="XMLID_1_" points="32.3,15.7 34.7,17.9 32.3,19.5 29.9,17 26.6,20.3 23,17 18,17 18,14 23.8,14 26.4,16.5 29.9,13.3 
			32.3,15.7 		"/>
	</g>
</g>
</svg>
